<svg width="135" height="25" viewBox="0 0 135 25" fill="none" xmlns="http://www.w3.org/2000/svg">
<g clip-path="url(#clip0_2146_6551)">
<mask id="mask0_2146_6551" style="mask-type:luminance" maskUnits="userSpaceOnUse" x="0" y="0" width="135" height="25">
<path d="M134.06 0.0253906H0.777344V24.9044H134.06V0.0253906Z" fill="white"/>
</mask>
<g mask="url(#mask0_2146_6551)">
<path d="M115.912 20.5555H110.953V4.08252H115.912V20.5555Z" fill="#0B1F2A"/>
<path d="M109.733 4.22131C110.684 4.484 111.646 4.99478 112.615 5.75367C113.587 6.51256 114.323 7.47212 114.831 8.63234C115.339 9.79256 115.589 10.971 115.589 12.175C115.589 13.379 115.368 14.4992 114.924 15.5426C114.48 16.5861 113.859 17.4836 113.065 18.2315C112.271 18.9795 111.356 19.5559 110.323 19.9537C109.29 20.3549 108.206 20.5557 107.07 20.5557C106.222 20.5557 105.318 20.4242 104.359 20.1616C103.397 19.8989 102.429 19.3881 101.445 18.6292C100.466 17.8703 99.7185 16.9072 99.2143 15.736C98.7072 14.5648 98.457 13.379 98.457 12.1787C98.457 10.9783 98.6788 9.85823 99.1215 8.82571C99.5651 7.79318 100.188 6.90295 100.981 6.15136C101.774 5.40342 102.701 4.82696 103.755 4.42927C104.809 4.02793 105.915 3.82727 107.07 3.82727C107.895 3.82727 108.785 3.95862 109.733 4.22131ZM108.617 15.9075C109.197 15.6557 109.708 15.1923 110.152 14.5173C110.594 13.8424 110.816 13.0616 110.816 12.1787C110.816 10.9966 110.441 10.0187 109.686 9.23799C108.932 8.45721 108.059 8.06682 107.07 8.06682C106.451 8.06682 105.829 8.23465 105.21 8.57397C104.592 8.90963 104.106 9.41312 103.755 10.0772C103.404 10.7412 103.229 11.4417 103.229 12.1787C103.229 13.0652 103.451 13.846 103.895 14.5173C104.338 15.1923 104.86 15.6557 105.46 15.9075C106.061 16.1592 106.598 16.2869 107.073 16.2869C107.548 16.2869 108.046 16.1592 108.621 15.9075H108.617Z" fill="#0B1F2A"/>
<path d="M125.292 24.8607H120.058L122.507 19.0888L116.215 4.08618H121.416L125.017 13.1308L128.86 4.08618H134.061L125.289 24.8607H125.292Z" fill="#0B1F2A"/>
<path d="M98.2614 4.70297C97.8959 3.77625 97.3708 2.97723 96.6772 2.30226C95.9836 1.62729 95.147 1.1092 94.1638 0.751647C93.1807 0.390446 92.1045 0.21167 90.9283 0.21167H86.7453L80.7891 14.3022V24.9084H86.0732V15.4077H90.703C93.1592 15.4077 95.122 14.7107 96.5949 13.3171C98.0679 11.9233 98.8047 10.0699 98.8047 7.76041C98.8047 6.64762 98.6219 5.62968 98.2614 4.70297ZM92.7195 10.0443C92.1224 10.6099 91.3216 10.8944 90.3169 10.8944H86.0696V4.81607H90.3169C91.3216 4.81607 92.1224 5.10066 92.7195 5.66617C93.3165 6.23168 93.6168 6.95044 93.6168 7.82243C93.6168 8.73821 93.3165 9.47884 92.7195 10.0443Z" fill="#0B1F2A"/>
<path d="M37.3177 5.3195C36.3917 4.56425 35.4764 4.05347 34.5719 3.79443C33.6674 3.53173 32.82 3.40039 32.0335 3.40039C30.9324 3.40039 29.8776 3.60105 28.8767 3.99874C27.8721 4.39643 26.9925 4.96924 26.2345 5.71354C25.4767 6.45783 24.8868 7.34441 24.4648 8.37329C24.043 9.40216 23.832 10.5149 23.832 11.7117C23.832 12.9084 24.0715 14.0868 24.5542 15.2543C25.0369 16.4183 25.7448 17.3777 26.6779 18.1367C27.6111 18.8919 28.537 19.4027 29.4522 19.6617C30.3675 19.9245 31.2291 20.0558 32.0335 20.0558C33.1168 20.0558 34.15 19.8551 35.1332 19.4574C36.1163 19.0597 36.9887 18.4869 37.7467 17.7426C38.5046 16.9983 39.0945 16.1044 39.5164 15.0683C39.9383 14.0284 40.1492 12.9121 40.1492 11.7153C40.1492 10.5186 39.9096 9.34379 39.427 8.19086C38.9443 7.03794 38.2401 6.08203 37.3177 5.32679V5.3195ZM34.9723 13.8095C34.5505 14.4152 34.0606 14.8311 33.5101 15.0573C32.9595 15.2836 32.4661 15.3966 32.0335 15.3966C31.6009 15.3966 31.0682 15.2836 30.4998 15.0573C29.9278 14.8311 29.4308 14.4152 29.0089 13.8095C28.587 13.2039 28.3761 12.5034 28.3761 11.7081C28.3761 11.0476 28.5441 10.4164 28.8767 9.82174C29.2127 9.22704 29.6739 8.77827 30.2638 8.47545C30.8537 8.17262 31.4436 8.02304 32.0335 8.02304C32.9774 8.02304 33.8104 8.37329 34.5255 9.0738C35.2441 9.77431 35.6016 10.6536 35.6016 11.7117C35.6016 12.507 35.3906 13.2075 34.9688 13.8132L34.9723 13.8095Z" fill="#0B1F2A"/>
<path d="M54.2604 6.21326C53.7492 5.66234 53.1377 5.23546 52.4299 4.93264C51.7221 4.62981 50.9462 4.48022 50.0989 4.48022C49.1944 4.48022 48.347 4.6444 47.5605 4.97641C46.774 5.30843 46.1054 5.77544 45.5548 6.37744V4.93264H40.832V20.052H45.5548V13.0359C45.5548 11.6313 45.8265 10.5769 46.3664 9.8727C46.9063 9.16854 47.6606 8.81828 48.6223 8.81828C49.1729 8.81828 49.6556 8.97882 50.0667 9.29988C50.4814 9.62095 50.7639 10.0114 50.9212 10.4747C51.0785 10.938 51.1572 11.3795 51.1572 11.7991V20.052H55.8478V10.7775C55.8478 9.85446 55.7083 9.00071 55.4331 8.21628C55.1578 7.43186 54.7645 6.76417 54.2533 6.21326H54.2604Z" fill="#0B1F2A"/>
<path d="M78.7618 0.208008L73.1344 13.4593L69.62 4.63363H64.5469L70.6854 19.2714L68.2937 24.9047H73.3991L83.8385 0.208008H78.7618Z" fill="#0B1F2A"/>
<path d="M63.0559 13.5467V8.52639H66.1878L64.5682 4.63709H63.0524V0.0253906H58.3295V4.63709H55.6445V8.52639H58.3295V14.0283C58.3295 15.9766 58.8444 17.4652 59.8776 18.5014C60.9109 19.5339 62.3623 20.052 64.2322 20.052C65.0866 20.052 68.004 19.8987 68.862 19.5996L67.3891 15.8781C67.1817 15.9656 63.0524 16.9325 63.0524 13.5504L63.0559 13.5467Z" fill="#0B1F2A"/>
<path d="M23.015 20.0558H18.4138V9.57363L13.0045 20.0558H10.8165L5.37861 9.51526V20.0558H0.777344V0.386719H5.43939L11.9104 12.8646L18.3851 0.386719H23.015V20.0558Z" fill="#0B1F2A"/>
</g>
</g>
<defs>
<clipPath id="clip0_2146_6551">
<rect width="134.846" height="24.9296" fill="white"/>
</clipPath>
</defs>
</svg>
