<svg width="188" height="34" viewBox="0 0 188 34" fill="none" xmlns="http://www.w3.org/2000/svg">
<g clip-path="url(#clip0_2146_6500)">
<g clip-path="url(#clip1_2146_6500)">
<path d="M15.1798 17.969L15.0709 6.31199L11.5562 17.969H7.68733L4.19991 6.31199L4.06368 17.969H0.0585938L0.603502 0.714478H6.07985L9.73074 12.8605L13.4088 0.714478H18.8579L19.4301 17.969H15.1798Z" fill="#0B1F2A"/>
<path d="M38.4884 9.32805C38.4884 10.6867 38.288 11.9142 37.889 13.0107C37.4899 14.1072 36.9129 15.039 36.1597 15.8095C35.4049 16.5799 34.4978 17.1776 33.4352 17.6029C32.3726 18.028 31.1786 18.2421 29.8516 18.2421C28.5261 18.2421 27.3274 18.0296 26.2551 17.6029C25.183 17.1776 24.2759 16.5799 23.5306 15.8095C22.7854 15.039 22.2085 14.1072 21.7998 13.0107C21.3911 11.9142 21.1875 10.6867 21.1875 9.32805C21.1875 7.96943 21.3911 6.74666 21.7998 5.65977C22.2085 4.57287 22.7854 3.63942 23.5306 2.86101C24.2759 2.0826 25.183 1.48482 26.2551 1.06764C27.3274 0.650463 28.5261 0.442688 29.8516 0.442688C31.177 0.442688 32.371 0.650463 33.4352 1.06764C34.4978 1.48482 35.4049 2.0826 36.1597 2.86101C36.9129 3.63942 37.4899 4.57287 37.889 5.65977C38.288 6.74666 38.4884 7.96943 38.4884 9.32805ZM34.0746 9.27371C34.0746 8.51289 33.988 7.81118 33.8166 7.16705C33.6435 6.5245 33.3807 5.96667 33.0265 5.49675C32.6723 5.02523 32.2316 4.65439 31.7058 4.38266C31.1786 4.11094 30.5615 3.97509 29.8532 3.97509C29.1448 3.97509 28.5277 4.11094 28.0005 4.38266C27.4732 4.65439 27.0325 5.02523 26.6783 5.49675C26.3241 5.96827 26.0564 6.5245 25.8738 7.16705C25.6926 7.80959 25.6012 8.51289 25.6012 9.27371C25.6012 10.0345 25.6926 10.741 25.8738 11.3931C26.0548 12.0453 26.3241 12.6064 26.6783 13.0778C27.0325 13.5494 27.4732 13.9202 28.0005 14.1919C28.5277 14.4637 29.1448 14.5995 29.8532 14.5995C30.5615 14.5995 31.1786 14.4637 31.7058 14.1919C32.2332 13.9202 32.6723 13.5494 33.0265 13.0778C33.3807 12.6064 33.6435 12.0453 33.8166 11.3931C33.988 10.741 34.0746 10.0345 34.0746 9.27371Z" fill="#0B1F2A"/>
<path d="M51.3248 17.969L44.7042 6.82826V17.969H40.6174V0.714478H45.1129L51.4339 11.2574V0.714478H55.4934V17.969H51.3248Z" fill="#0B1F2A"/>
<path d="M65.862 4.08384V17.969H61.5573V4.08384H56.8711V0.714478H70.5483V4.08384H65.862Z" fill="#0B1F2A"/>
<path d="M81.3769 11.0128V17.969H77.0722V11.0128L71.0781 0.714478H75.846L79.2245 7.67061L82.6029 0.714478H87.3437L81.3769 11.0128Z" fill="#0B1F2A"/>
<path d="M107.749 15.3061C107.35 15.8494 106.841 16.3386 106.224 16.7733C105.696 17.1362 105.02 17.4702 104.193 17.7787C103.366 18.0872 102.363 18.2407 101.182 18.2407C100.001 18.2407 98.8931 18.0505 97.8578 17.67C96.8225 17.2896 95.9186 16.7238 95.146 15.9726C94.3736 15.2213 93.7661 14.2927 93.3206 13.1882C92.875 12.0838 92.6523 10.797 92.6523 9.32972C92.6523 7.8624 92.8927 6.57571 93.3752 5.47123C93.856 4.36676 94.5017 3.4429 95.3095 2.69966C96.1173 1.95642 97.0389 1.39538 98.0741 1.01497C99.1095 0.634553 100.182 0.444336 101.289 0.444336C102.397 0.444336 103.355 0.594591 104.163 0.891889C104.97 1.19078 105.634 1.51685 106.152 1.8701C106.669 2.22333 107.056 2.55419 107.309 2.86268C107.564 3.17116 107.7 3.33421 107.717 3.35179L105.592 6.23206C105.32 5.85165 104.983 5.50799 104.584 5.1995C104.24 4.94536 103.817 4.71041 103.318 4.49303C102.818 4.27565 102.233 4.16696 101.562 4.16696C100.908 4.16696 100.304 4.28523 99.749 4.52019C99.1944 4.75516 98.7184 5.0956 98.3193 5.53996C97.9203 5.98431 97.611 6.51816 97.393 7.14313C97.175 7.76809 97.0661 8.46979 97.0661 9.2498C97.0661 10.8258 97.4748 12.0757 98.2921 12.9995C99.1095 13.9234 100.19 14.3854 101.534 14.3854C102.206 14.3854 102.792 14.2767 103.292 14.0592C103.792 13.8419 104.224 13.6069 104.586 13.3528C104.985 13.0443 105.339 12.7007 105.648 12.3203L107.749 15.3061Z" fill="#0B1F2A"/>
<path d="M120.26 17.969L119.252 14.7083H113.149L112.141 17.969H107.891L113.748 0.714478H118.98L124.838 17.969H120.26ZM116.201 4.76315L114.13 11.366H118.271L116.201 4.76315Z" fill="#0B1F2A"/>
<path d="M139.249 6.50218C139.249 7.58907 139.081 8.49056 138.746 9.20663C138.409 9.9227 137.924 10.5157 137.287 10.9872C136.96 11.2222 136.597 11.422 136.198 11.585C135.799 11.748 135.38 11.8838 134.944 11.9926C134.508 12.1013 134.077 12.178 133.651 12.2228C133.223 12.2675 132.829 12.2915 132.464 12.2915H130.339V17.9705H126.035V0.716064H132.464C133.282 0.716064 134.131 0.815163 135.014 1.01496C135.895 1.21475 136.653 1.54882 137.287 2.02034C137.924 2.49186 138.409 3.08484 138.746 3.80091C139.081 4.51379 139.249 5.41527 139.249 6.50218ZM134.944 6.50218C134.944 5.99548 134.867 5.58311 134.713 5.26663C134.56 4.95016 134.326 4.68323 134.019 4.46424C133.71 4.22928 133.393 4.08862 133.066 4.04387C132.739 3.99911 132.331 3.97675 131.84 3.97675H130.341V9.05798H131.84C132.331 9.05798 132.734 9.0308 133.053 8.97646C133.371 8.92211 133.684 8.78626 133.994 8.56887C134.302 8.33392 134.539 8.05739 134.703 7.73932C134.863 7.42283 134.944 7.01046 134.944 6.50218Z" fill="#0B1F2A"/>
<path d="M140.922 17.969V0.714478H145.254V17.969H140.922Z" fill="#0B1F2A"/>
<path d="M155.62 4.08384V17.969H151.316V4.08384H146.629V0.714478H160.307V4.08384H155.62Z" fill="#0B1F2A"/>
<path d="M170.639 17.969L169.63 14.7083H163.528L162.52 17.969H158.27L164.127 0.714478H169.358L175.216 17.969H170.639ZM166.578 4.76315L164.507 11.366H168.648L166.578 4.76315Z" fill="#0B1F2A"/>
<path d="M176.414 17.969V0.714478H180.719V14.4909H187.422V17.969H176.414Z" fill="#0B1F2A"/>
<path d="M43.0701 27.2429V29.2089H45.4837V29.9282H43.0701V32.623H42.1758V26.5332H45.7048V27.2429H43.0701Z" fill="#0B1F2A"/>
<path d="M47.6562 32.623V26.5332H48.5505V32.623H47.6562Z" fill="#0B1F2A"/>
<path d="M55.067 32.6232L51.9129 27.732V32.6232H51.0859V26.5333H52.0764L55.0766 31.1941V26.5333H55.9133V32.6232H55.067Z" fill="#0B1F2A"/>
<path d="M62.302 32.623L61.7636 31.0982H59.1576L58.6191 32.623H57.7344L59.975 26.5332H61.0135L63.254 32.623H62.302ZM60.4654 27.358L59.3884 30.3885H61.5327L60.4654 27.358Z" fill="#0B1F2A"/>
<path d="M69.0514 32.623L65.8973 27.7319V32.623H65.0703V26.5332H66.0607L69.061 31.194V26.5332H69.8975V32.623H69.0514Z" fill="#0B1F2A"/>
<path d="M76.6461 28.1441C76.5498 27.9715 76.4249 27.8181 76.271 27.6839C76.1427 27.5688 75.9729 27.4633 75.7614 27.3674C75.5498 27.2714 75.2966 27.2235 75.0016 27.2235C74.7068 27.2235 74.4375 27.2794 74.1939 27.3914C73.9503 27.5033 73.742 27.6631 73.5689 27.8709C73.3958 28.0786 73.2612 28.3264 73.165 28.6141C73.0689 28.9018 73.0208 29.2182 73.0208 29.5635C73.0208 29.9088 73.0673 30.2253 73.1602 30.513C73.2532 30.8007 73.3845 31.0484 73.5545 31.2562C73.7244 31.464 73.9295 31.6238 74.1699 31.7357C74.4103 31.8476 74.6779 31.9035 74.9728 31.9035C75.2678 31.9035 75.5242 31.8556 75.7421 31.7597C75.9601 31.6638 76.1395 31.5551 76.2806 31.4336C76.4473 31.2994 76.5851 31.1428 76.6941 30.9637L77.2134 31.5391C77.0787 31.7629 76.9057 31.9579 76.6941 32.1242C76.5082 32.2712 76.271 32.4055 75.9825 32.5269C75.694 32.6484 75.3447 32.7091 74.9344 32.7091C74.5241 32.7091 74.1459 32.6372 73.7997 32.4934C73.4534 32.3495 73.1538 32.1433 72.9006 31.8747C72.6473 31.6063 72.4502 31.2786 72.3091 30.8918C72.1682 30.505 72.0977 30.0654 72.0977 29.5731C72.0977 29.0808 72.1746 28.6413 72.3285 28.2544C72.4822 27.8677 72.6906 27.54 72.9534 27.2714C73.2162 27.0029 73.5224 26.7983 73.8717 26.6577C74.2212 26.5171 74.5881 26.4467 74.9728 26.4467C75.3575 26.4467 75.6876 26.5027 75.9633 26.6146C76.239 26.7264 76.4665 26.8495 76.6461 26.9837C76.8255 27.118 76.9569 27.2458 77.0402 27.3674C77.1236 27.4889 77.1717 27.5592 77.1845 27.5784L76.6461 28.1441Z" fill="#0B1F2A"/>
<path d="M79.1914 32.6232V26.5333H80.0857V32.6232H79.1914Z" fill="#0B1F2A"/>
<path d="M86.47 32.623L85.9315 31.0982H83.3256L82.787 32.623H81.9023L84.1429 26.5332H85.1815L87.422 32.623H86.47ZM84.6334 27.358L83.5564 30.3885H85.7007L84.6334 27.358Z" fill="#0B1F2A"/>
<path d="M89.2383 32.623V26.5332H90.1326V31.8846H92.6135V32.623H89.2383Z" fill="#0B1F2A"/>
<path d="M101.247 32.623L100.709 31.0982H98.1029L97.5644 32.623H96.6797L98.9203 26.5332H99.9589L102.199 32.623H101.247ZM99.4107 27.358L98.3337 30.3885H100.478L99.4107 27.358Z" fill="#0B1F2A"/>
<path d="M109.043 29.5733C109.043 30.104 108.956 30.5595 108.783 30.9399C108.61 31.3203 108.395 31.632 108.139 31.875C107.889 32.1179 107.594 32.3033 107.254 32.4312C106.915 32.559 106.508 32.623 106.033 32.623H104.023V26.5332H106.033C106.508 26.5332 106.913 26.5971 107.25 26.725C107.586 26.8528 107.883 27.0383 108.139 27.2812C108.389 27.5242 108.602 27.8358 108.779 28.2163C108.955 28.5967 109.043 29.0491 109.043 29.5733ZM108.12 29.5733C108.12 29.1961 108.064 28.8556 107.952 28.5519C107.839 28.2483 107.687 28.0005 107.495 27.8087C107.117 27.4315 106.626 27.2429 106.024 27.2429H104.908V31.8942H106.024C106.633 31.8942 107.123 31.7087 107.495 31.3379C107.687 31.1461 107.839 30.8984 107.952 30.5946C108.064 30.291 108.12 29.9506 108.12 29.5733Z" fill="#0B1F2A"/>
<path d="M113.415 32.623H112.453L110.309 26.5332H111.261L112.963 31.6639L114.674 26.5332H115.559L113.415 32.623Z" fill="#0B1F2A"/>
<path d="M117.422 32.623V26.5332H118.316V32.623H117.422Z" fill="#0B1F2A"/>
<path d="M124.587 30.9061C124.587 31.181 124.535 31.4287 124.429 31.6494C124.323 31.8699 124.177 32.0569 123.991 32.2104C123.811 32.3574 123.597 32.4774 123.347 32.5701C123.097 32.6628 122.789 32.7091 122.423 32.7091C122.161 32.7091 121.917 32.6755 121.693 32.6084C121.469 32.5413 121.267 32.4582 121.087 32.359C120.908 32.2599 120.752 32.156 120.621 32.0473C120.489 31.9387 120.385 31.8428 120.309 31.7597L120.808 31.1459C120.847 31.1842 120.914 31.2497 121.01 31.3424C121.107 31.4351 121.223 31.5262 121.361 31.6158C121.499 31.7053 121.658 31.7852 121.837 31.8555C122.016 31.9259 122.212 31.961 122.423 31.961C122.846 31.961 123.168 31.8731 123.386 31.6973C123.603 31.5214 123.713 31.2897 123.713 31.002C123.713 30.8614 123.683 30.7415 123.626 30.6424C123.568 30.5432 123.498 30.4585 123.415 30.3882C123.331 30.3179 123.243 30.2619 123.149 30.2204C123.057 30.1788 122.978 30.1421 122.914 30.1101C122.844 30.0845 122.753 30.0478 122.641 29.9998C122.527 29.9519 122.411 29.9055 122.29 29.8608C122.167 29.816 122.055 29.7729 121.952 29.7313C121.85 29.6898 121.776 29.6594 121.732 29.6401C121.642 29.6019 121.534 29.549 121.409 29.4819C121.285 29.4148 121.164 29.3269 121.048 29.2182C120.92 29.1095 120.812 28.9641 120.721 28.7819C120.632 28.5996 120.588 28.3743 120.588 28.1058C120.588 27.8245 120.645 27.5783 120.76 27.3673C120.876 27.1563 121.023 26.9837 121.203 26.8495C121.375 26.7215 121.578 26.6208 121.808 26.5473C122.039 26.4738 122.308 26.437 122.617 26.437C122.873 26.437 123.108 26.469 123.323 26.5329C123.538 26.5969 123.727 26.6736 123.89 26.7632C124.054 26.8527 124.19 26.9454 124.299 27.0412C124.408 27.1371 124.488 27.2139 124.539 27.2714L124.106 27.8756C124.056 27.8181 123.98 27.7478 123.881 27.6647C123.782 27.5814 123.666 27.5015 123.535 27.4248C123.403 27.3481 123.259 27.2842 123.101 27.233C122.945 27.1819 122.78 27.1563 122.606 27.1563C122.254 27.1563 121.973 27.2298 121.765 27.3769C121.557 27.5239 121.453 27.7382 121.453 28.0194C121.453 28.1601 121.477 28.2784 121.525 28.3743C121.573 28.4702 121.636 28.5517 121.712 28.6188C121.789 28.686 121.872 28.7403 121.963 28.7819C122.052 28.8235 122.142 28.8634 122.231 28.9018L123.424 29.3716C123.539 29.4228 123.658 29.4803 123.779 29.5442C123.902 29.6083 124.017 29.6946 124.126 29.8033C124.273 29.9503 124.387 30.1117 124.467 30.2875C124.547 30.4633 124.587 30.6696 124.587 30.9061Z" fill="#0B1F2A"/>
<path d="M132.2 29.5731C132.2 30.0334 132.131 30.4554 131.993 30.839C131.855 31.2227 131.66 31.5535 131.407 31.8316C131.153 32.1098 130.846 32.3255 130.483 32.479C130.121 32.6324 129.719 32.7091 129.276 32.7091C128.834 32.7091 128.433 32.6324 128.07 32.479C127.708 32.3255 127.398 32.1098 127.142 31.8316C126.886 31.5535 126.688 31.2227 126.551 30.839C126.413 30.4554 126.344 30.0334 126.344 29.5731C126.344 29.1128 126.413 28.6924 126.551 28.3121C126.688 27.9316 126.886 27.6023 127.142 27.3243C127.398 27.0461 127.708 26.8303 128.07 26.6769C128.433 26.5234 128.834 26.4467 129.276 26.4467C129.719 26.4467 130.121 26.5234 130.483 26.6769C130.846 26.8303 131.153 27.0461 131.407 27.3243C131.66 27.6023 131.855 27.9316 131.993 28.3121C132.131 28.6924 132.2 29.1128 132.2 29.5731ZM131.277 29.5731C131.277 29.2278 131.23 28.9098 131.137 28.6189C131.045 28.328 130.911 28.077 130.738 27.8661C130.566 27.6551 130.355 27.4905 130.108 27.3722C129.861 27.2538 129.585 27.1947 129.276 27.1947C128.963 27.1947 128.682 27.2538 128.435 27.3722C128.188 27.4905 127.979 27.6551 127.805 27.8661C127.632 28.077 127.5 28.3264 127.406 28.6141C127.313 28.9018 127.267 29.2182 127.267 29.5635C127.267 29.9088 127.313 30.2269 127.406 30.5178C127.5 30.8086 127.632 31.0597 127.805 31.2706C127.979 31.4816 128.188 31.6462 128.435 31.7645C128.682 31.8827 128.963 31.9419 129.276 31.9419C129.585 31.9419 129.861 31.8827 130.108 31.7645C130.355 31.6462 130.566 31.4816 130.738 31.2706C130.911 31.0597 131.045 30.8102 131.137 30.5226C131.23 30.2349 131.277 29.9184 131.277 29.5731Z" fill="#0B1F2A"/>
<path d="M137.783 32.6232L136.197 30.1201H135.292V32.6232H134.398V26.5333H136.389C136.678 26.5333 136.945 26.5684 137.192 26.6388C137.438 26.7091 137.652 26.8179 137.831 26.9649C138.023 27.1119 138.178 27.3005 138.293 27.5307C138.409 27.7609 138.466 28.0198 138.466 28.3075C138.466 28.544 138.427 28.7567 138.35 28.9453C138.274 29.1339 138.173 29.2985 138.047 29.4391C137.923 29.5798 137.78 29.6981 137.62 29.794C137.46 29.8899 137.293 29.9602 137.119 30.005L138.832 32.6232H137.783ZM137.572 28.3267C137.572 28.1413 137.532 27.9719 137.452 27.8184C137.372 27.6649 137.267 27.5435 137.139 27.454C137.011 27.3645 136.876 27.3053 136.735 27.2765C136.594 27.2478 136.421 27.2334 136.216 27.2334H135.292V29.4295H136.216C136.421 29.4295 136.594 29.4152 136.735 29.3864C136.876 29.3576 137.011 29.2985 137.139 29.209C137.267 29.1195 137.372 28.998 137.452 28.8446C137.532 28.6912 137.572 28.5185 137.572 28.3267Z" fill="#0B1F2A"/>
<path d="M142.858 30.1104V32.623H141.973V30.1104L139.867 26.5332H140.857L142.424 29.4007L143.992 26.5332H144.954L142.858 30.1104Z" fill="#0B1F2A"/>
</g>
</g>
<defs>
<clipPath id="clip0_2146_6500">
<rect width="187.478" height="33.1516" fill="white"/>
</clipPath>
<clipPath id="clip1_2146_6500">
<rect width="187.478" height="33.1516" fill="white"/>
</clipPath>
</defs>
</svg>
