<svg width="125" height="51" viewBox="0 0 125 51" fill="none" xmlns="http://www.w3.org/2000/svg">
<g clip-path="url(#clip0_2146_6566)">
<g clip-path="url(#clip1_2146_6566)">
<path d="M23.3177 28.4983H17.2812V43.9056H23.3177V28.4983Z" fill="#0B1F2A"/>
<path d="M34.4286 35.4578C34.4286 33.7186 33.8222 32.849 32.6095 32.849C31.4227 32.849 30.8245 33.717 30.8245 35.4578V43.8921H24.793V28.4996H30.8245V30.4021C31.7431 28.9213 33.1685 28.1792 35.1005 28.1759C38.6768 28.1759 40.4634 30.412 40.4601 34.8842V43.9069H34.4286V35.4578Z" fill="#0B1F2A"/>
<path d="M53.554 42.0007C52.6779 43.4881 51.2068 44.2302 49.1408 44.2269C48.1663 44.2478 47.1991 44.0558 46.3065 43.6646C45.4139 43.2734 44.6173 42.6921 43.9723 41.9615C42.5697 40.3792 41.8304 38.3176 41.9079 36.2046C41.8304 34.0915 42.5697 32.0299 43.9723 30.4476C44.6171 29.7164 45.4134 29.1345 46.3061 28.7424C47.1987 28.3502 48.166 28.1574 49.1408 28.1773C51.1904 28.1773 52.6615 28.9292 53.554 30.433V28.501H59.5855V43.9082H53.554V42.0007ZM48.7386 38.6662C48.9909 38.9689 49.3065 39.2123 49.6632 39.3795C50.02 39.5466 50.4092 39.6332 50.8031 39.6332C51.1971 39.6332 51.5862 39.5466 51.9429 39.3795C52.2996 39.2123 52.6154 38.9689 52.8675 38.6662C53.3678 37.9465 53.6359 37.0909 53.6359 36.2144C53.6359 35.3378 53.3678 34.4823 52.8675 33.7625C52.6154 33.4599 52.2996 33.2164 51.9429 33.0493C51.5862 32.8822 51.1971 32.7956 50.8031 32.7956C50.4092 32.7956 50.02 32.8822 49.6632 33.0493C49.3065 33.2164 48.9909 33.4599 48.7386 33.7625C48.2357 34.4813 47.9659 35.3372 47.9659 36.2144C47.9659 37.0916 48.2357 37.9475 48.7386 38.6662Z" fill="#0B1F2A"/>
<path d="M70.6971 35.4578C70.6971 33.7186 70.0924 32.849 68.8828 32.849C67.6733 32.849 67.0783 33.7186 67.0979 35.4578V43.8921H61.0664V28.4996H67.0979V30.4021C68.0165 28.9213 69.4419 28.1792 71.3739 28.1759C74.947 28.1759 76.7335 30.412 76.7335 34.8842V43.9069H70.6971V35.4578Z" fill="#0B1F2A"/>
<path d="M80.7647 30.3424C82.5474 28.7646 84.8683 27.9324 87.2473 28.0181C89.9443 28.0181 92.1216 28.8174 93.779 30.416L90.8809 33.9858C90.0067 33.1671 88.8568 32.7069 87.6593 32.6962C87.2077 32.6828 86.7581 32.7601 86.337 32.9235C85.9158 33.0868 85.5318 33.333 85.2075 33.6474C84.5868 34.2994 84.2407 35.1649 84.2407 36.0649C84.2407 36.965 84.5868 37.8305 85.2075 38.4825C85.5318 38.7968 85.9158 39.0431 86.337 39.2064C86.7581 39.3698 87.2077 39.4471 87.6593 39.4337C88.8568 39.423 90.0067 38.9626 90.8809 38.1441L93.779 41.6894C92.1216 43.288 89.9443 44.0889 87.2473 44.0922C84.8677 44.1759 82.5469 43.3421 80.7647 41.763C79.9582 41.0488 79.3124 40.1716 78.8702 39.1894C78.4279 38.2072 78.1992 37.1422 78.1992 36.0649C78.1992 34.9877 78.4279 33.9227 78.8702 32.9405C79.3124 31.9581 79.9582 31.0809 80.7647 30.3669V30.3424Z" fill="#0B1F2A"/>
<path d="M96.1803 41.9617C95.3865 41.2437 94.7567 40.3631 94.3335 39.3799C93.9104 38.3966 93.7041 37.3338 93.7285 36.2637C93.7131 35.2054 93.9104 34.1548 94.3089 33.1743C94.7073 32.1938 95.2987 31.3033 96.048 30.5558C97.591 28.9769 99.6914 28.1858 102.349 28.1824C104.579 28.0968 106.759 28.8549 108.454 30.3058C110.043 31.7245 110.839 33.6337 110.842 36.0332C110.856 36.497 110.807 36.9606 110.695 37.4111H99.3677C99.3677 37.9015 99.7306 38.4311 100.451 38.9459C101.303 39.5023 102.309 39.7752 103.325 39.7256C104.84 39.7331 106.31 39.213 107.483 38.2545L109.969 41.5939C108.213 43.3691 105.823 44.2567 102.795 44.2567C100.02 44.237 97.8149 43.4721 96.1803 41.9617ZM100.295 33.0076C100.022 33.1823 99.7951 33.4201 99.6339 33.701C99.4725 33.9818 99.3812 34.2973 99.3677 34.621H105.404C105.389 34.295 105.294 33.9776 105.128 33.6965C104.963 33.4153 104.731 33.1789 104.453 33.0076C103.828 32.6229 103.108 32.4192 102.374 32.4192C101.64 32.4192 100.92 32.6229 100.295 33.0076Z" fill="#0B1F2A"/>
<path d="M7.85687 21.064H1.78125V27.1445V40.9728H7.85687V27.1445H16.6442V21.064H7.85687Z" fill="#0B1F2A"/>
<path d="M14.1769 28.625H11.2984H9.3125V30.6159V33.4895" fill="#0B1F2A"/>
<path d="M45.9688 5.80457H48.6854L56.4577 22.7368L64.2594 5.80457H67.0005V25.8751H64.5487V10.6396H64.4065L57.3894 25.8751H55.5554L48.5432 10.6396H48.401V25.8751H45.9492L45.9688 5.80457Z" fill="#0B1F2A"/>
<path d="M68.4727 18.5277C68.4727 13.6241 72.2926 10.8928 76.1076 10.8928C79.9227 10.8928 83.7377 13.6094 83.7377 18.5277C83.7377 23.446 79.9227 26.1431 76.1076 26.1431C72.2926 26.1431 68.4727 23.446 68.4727 18.5277ZM81.3643 18.5277C81.3643 15.0511 78.8193 13.07 76.1076 13.07C73.3959 13.07 70.846 15.0315 70.846 18.5277C70.846 22.024 73.3763 23.9854 76.1076 23.9854C78.8389 23.9854 81.3643 22.0044 81.3643 18.5277Z" fill="#0B1F2A"/>
<path d="M98.2664 17.2242V25.8743H95.8929V17.5381C95.8929 14.5959 94.1374 13.0414 91.7935 13.0414C89.4495 13.0414 87.596 14.5959 87.596 17.5626V25.8988H85.2227V11.1879H87.596V13.5907C88.361 12.1784 89.9693 10.9034 92.4996 10.9034C95.6085 10.8887 98.2664 12.8158 98.2664 17.2242Z" fill="#0B1F2A"/>
<path d="M103.694 13.1288V22.4457C103.694 23.3479 104.145 23.9168 105.249 23.9168C105.703 23.9126 106.154 23.8262 106.578 23.6617V25.5595C105.989 25.9197 105.305 26.0908 104.616 26.0499C102.655 26.0499 101.34 25.0937 101.34 22.887V13.1288H99.3789V11.1673H101.34V7.41602H103.714V11.1772H106.627V13.1386L103.694 13.1288Z" fill="#0B1F2A"/>
<path d="M122.524 11.1727L116.277 25.8837L113.933 31.2434H111.584L114.036 25.7317L107.828 11.1727H110.28L115.184 22.9415L120.087 11.1727H122.524Z" fill="#0B1F2A"/>
<path d="M116.937 38.1674V41.9383C116.955 42.2658 116.901 42.5932 116.776 42.8969C116.653 43.2006 116.463 43.4728 116.221 43.6938C115.723 44.1219 115.083 44.3476 114.426 44.3264C113.772 44.3485 113.135 44.1225 112.642 43.6938C112.4 43.4722 112.21 43.1998 112.087 42.8963C111.963 42.5927 111.907 42.2657 111.925 41.9383V38.1674H113.269V41.9383C113.257 42.1082 113.281 42.2786 113.339 42.4389C113.396 42.5992 113.485 42.7458 113.602 42.87C113.71 42.9781 113.839 43.063 113.98 43.1195C114.122 43.1759 114.273 43.2029 114.426 43.1985C114.58 43.2027 114.734 43.1753 114.877 43.1179C115.021 43.0606 115.151 42.9745 115.259 42.8651C115.377 42.7421 115.467 42.5964 115.525 42.437C115.584 42.2774 115.608 42.1077 115.598 41.9383V38.1674H116.937Z" fill="#0B1F2A"/>
<path d="M119.106 41.4577V44.2283H117.781V38.1674H119.106V40.9478L120.896 38.1674H122.274V38.3439L120.385 41.139L121.151 42.4826C121.256 42.6992 121.397 42.8964 121.567 43.0662C121.692 43.1559 121.844 43.2008 121.999 43.1936C122.15 43.1799 122.294 43.1294 122.42 43.0465L122.911 43.9979C122.562 44.2179 122.156 44.332 121.744 44.3264C121.028 44.3264 120.459 43.9145 120.037 43.0955L119.111 41.4431L119.106 41.4577Z" fill="#0B1F2A"/>
</g>
</g>
<defs>
<clipPath id="clip0_2146_6566">
<rect width="124.197" height="50.3212" rx="5.35332" fill="white"/>
</clipPath>
<clipPath id="clip1_2146_6566">
<rect width="124.197" height="50.3212" fill="white"/>
</clipPath>
</defs>
</svg>
