<svg width="164" height="33" viewBox="0 0 164 33" fill="none" xmlns="http://www.w3.org/2000/svg">
<g clip-path="url(#clip0_2146_6584)">
<path fill-rule="evenodd" clip-rule="evenodd" d="M0.996216 4.08159C0.996216 2.19441 2.52608 0.664551 4.41326 0.664551H101.229L101.242 0.664573H159.319C161.206 0.664573 162.736 2.19443 162.736 4.08161V28.0009C162.736 29.888 161.206 31.4179 159.319 31.4179H88.7004H88.6877H80.8304L92.4619 10.2885H87.6637L83.1183 18.4249L80.8028 10.2885H76.0045L80.1408 23.7833L76.0016 31.4179H4.41325C2.52607 31.4179 0.996216 29.888 0.996216 28.0009V4.08159ZM102.624 18.9656H111.163L111.168 18.9678L111.44 18.0201C111.686 17.1116 111.761 16.2732 111.667 15.5027C111.57 14.7323 111.326 14.0777 110.932 13.5392C110.536 13.0008 110.017 12.5893 109.373 12.3047C108.726 12.0201 108.018 11.8778 107.198 11.8778C106.378 11.8778 105.547 12.0289 104.702 12.3287C103.858 12.6287 103.071 13.0511 102.34 13.5983C101.61 14.1456 100.977 14.8001 100.441 15.5619C99.904 16.3236 99.5081 17.1444 99.2552 18.0222C99.0023 18.9 98.9255 19.723 99.0199 20.4935C99.1145 21.264 99.3696 21.9207 99.7853 22.4679C100.199 23.0152 100.74 23.4333 101.406 23.7265C102.07 24.0177 102.813 24.1643 103.633 24.1643C104.638 24.1643 105.562 24.0111 106.4 23.7025C107.238 23.3939 107.994 22.9758 108.665 22.4438C109.336 21.9119 109.932 21.2771 110.455 20.5373L107.352 19.8675C106.6 20.7606 105.646 21.2071 104.484 21.2071C103.867 21.2071 103.389 21.0013 103.06 20.5942C102.73 20.1871 102.585 19.642 102.624 18.9656ZM103.348 16.7022C103.675 16.1484 104.122 15.7041 104.68 15.3736L104.682 15.3758C105.243 15.0452 105.793 14.8789 106.334 14.8789C106.875 14.8789 107.312 15.0365 107.647 15.3517C107.981 15.6669 108.15 16.1178 108.15 16.7022H103.348ZM125.857 9.18316C126.773 9.97555 127.176 11.0744 127.066 12.4753L123.088 13.2371C123.148 12.5431 122.978 12.0091 122.576 11.6325C122.173 11.2561 121.647 11.0657 120.999 11.0657C120.35 11.0657 119.833 11.2167 119.361 11.5166C118.887 11.8164 118.586 12.1908 118.457 12.6373C118.364 12.9613 118.382 13.2349 118.51 13.4582C118.639 13.6814 118.914 13.839 119.336 13.931L122.356 14.6468C123.644 14.9554 124.548 15.4829 125.067 16.2293C125.586 16.9758 125.674 17.9498 125.328 19.1516C125.102 19.9374 124.731 20.6488 124.214 21.2879C123.697 21.9272 123.081 22.4591 122.362 22.8816C121.643 23.304 120.869 23.6235 120.033 23.8403C119.198 24.057 118.346 24.1643 117.48 24.1643C116.614 24.1643 115.821 24.0614 115.099 23.8534C114.378 23.6454 113.768 23.3412 113.274 22.9406C112.778 22.54 112.422 22.0432 112.207 21.45C111.992 20.8568 111.932 20.2001 112.034 19.4755L116.198 18.7138C116.175 19.2829 116.28 19.7492 116.515 20.1103C116.75 20.4715 117.065 20.7101 117.458 20.8261C117.85 20.9421 118.232 20.9991 118.604 20.9991C119.301 20.9991 119.9 20.8524 120.401 20.5612C120.902 20.2679 121.223 19.8827 121.36 19.4055C121.461 19.0509 121.436 18.7619 121.285 18.5387C121.133 18.3154 120.81 18.1491 120.314 18.0417L117.264 17.3479C114.663 16.7175 113.7 15.2225 114.38 12.8672C114.806 11.3896 115.714 10.2076 117.106 9.32107C118.499 8.43454 120.109 7.99238 121.933 7.99238C123.635 7.99238 124.944 8.38858 125.861 9.18097L125.857 9.18316ZM130.668 8.34055L126.211 23.8164H130.039L134.496 8.34055H130.668ZM150.725 23.8164H147.014L149.388 15.5706L142.65 23.8164H140.887L138.89 15.5246L136.502 23.8164H132.79L137.247 8.34055H141.005L143.398 18.1579L151.447 8.34055H155.183L150.725 23.8164ZM25.9902 24.2539H30.452L32.7478 5.65016H28.2574L20.5256 17.4508L15.7054 5.65016H11.1864L8.89064 24.2539H13.3546L14.5839 14.2855L18.6257 24.2539H20.7455L27.2128 14.3424L25.9902 24.2539ZM43.5273 10.3017C44.354 10.5337 45.1633 10.9824 45.955 11.6478C46.7466 12.3132 47.3074 13.156 47.6372 14.1739C47.9671 15.1917 48.0682 16.2293 47.9363 17.2844C47.8043 18.3394 47.4855 19.3245 46.971 20.2416C46.4585 21.1587 45.8033 21.9446 45.0072 22.6013C44.2111 23.2579 43.325 23.7636 42.353 24.1139C41.3788 24.4662 40.3827 24.6413 39.3579 24.6413C38.5949 24.6413 37.7966 24.5254 36.961 24.2933C36.1253 24.0613 35.3051 23.6126 34.5047 22.9472C33.7043 22.2817 33.1391 21.4346 32.8092 20.4058C32.4794 19.3791 32.3804 18.3372 32.5102 17.2822C32.6399 16.2271 32.961 15.2465 33.4733 14.3381C33.9857 13.4318 34.6388 12.6482 35.4371 11.9915C36.2331 11.3348 37.1282 10.8292 38.1199 10.479C39.1116 10.1265 40.1276 9.95143 41.1699 9.95143C41.9132 9.95143 42.6982 10.0674 43.5251 10.2995L43.5273 10.3017ZM41.2579 20.5612C41.8055 20.3401 42.3156 19.933 42.7884 19.3398C43.2611 18.7466 43.5449 18.0636 43.6416 17.2844C43.7691 16.2468 43.536 15.3865 42.9423 14.7014C42.3485 14.0163 41.6053 13.6748 40.7126 13.6748C40.154 13.6748 39.5778 13.8237 38.9841 14.1192C38.3903 14.4147 37.8978 14.8546 37.5107 15.4369C37.1237 16.0191 36.8884 16.6364 36.8092 17.2844C36.7125 18.0614 36.829 18.7466 37.1545 19.3398C37.4822 19.933 37.8999 20.3401 38.4124 20.5612C38.9247 20.7845 39.3931 20.8939 39.8219 20.8939C40.2507 20.8939 40.7104 20.7823 41.2579 20.5612ZM62.5399 11.4968C62.1199 10.989 61.5922 10.595 60.9566 10.317V10.3148C60.3212 10.0368 59.6043 9.8989 58.8038 9.8989C57.9484 9.8989 57.1282 10.0499 56.3475 10.3564C55.5669 10.6628 54.8807 11.0919 54.2914 11.6478L54.4564 10.3148H49.9924L48.2727 24.2539H52.7367L53.5349 17.7856C53.6932 16.4898 54.0693 15.5178 54.6608 14.87C55.2523 14.222 56.0044 13.8981 56.9149 13.8981C57.4361 13.8981 57.8736 14.0469 58.2276 14.3424C58.5817 14.6401 58.806 15.0013 58.9028 15.4259C58.9995 15.8506 59.0237 16.2577 58.9753 16.6474L58.0363 24.2561H62.4718L63.5273 15.7039C63.6328 14.8524 63.5999 14.0666 63.4283 13.3443C63.2568 12.6219 62.9599 12.0047 62.5399 11.4968ZM74.8922 23.6431C73.5244 24.3283 72.2094 24.6698 70.945 24.6698C69.1791 24.6698 67.8663 24.1926 67.0065 23.2404C66.1489 22.2882 65.83 20.9136 66.05 19.1164L66.7008 13.8412H64.1632L64.5986 10.3147H67.1362L67.7124 5.65009H72.1764L71.6003 10.3147H75.7278L75.2924 13.8412H71.1648L70.569 18.6721C70.4018 20.0227 70.9428 20.6991 72.1874 20.6991C72.4843 20.6991 72.8361 20.6443 73.2408 20.5327C73.6453 20.421 73.995 20.2919 74.2919 20.143L74.8922 23.6409V23.6431Z" fill="#0B1F2A"/>
</g>
<defs>
<clipPath id="clip0_2146_6584">
<rect x="0.00012207" width="163.731" height="32.0825" rx="5.53146" fill="white"/>
</clipPath>
</defs>
</svg>
