<svg width="142" height="29" viewBox="0 0 142 29" fill="none" xmlns="http://www.w3.org/2000/svg">
<g clip-path="url(#clip0_2146_6533)">
<mask id="mask0_2146_6533" style="mask-type:luminance" maskUnits="userSpaceOnUse" x="0" y="0" width="142" height="29">
<path d="M141.479 0.319702H0V28.4556H141.479V0.319702Z" fill="white"/>
</mask>
<g mask="url(#mask0_2146_6533)">
<path d="M82.5706 4.07288C87.5154 4.07288 91.8679 7.5986 91.8679 12.7866C91.8679 17.9746 87.5154 21.5353 82.5706 21.5353C77.6259 21.5353 73.2734 18.0446 73.2734 12.7866C73.2734 7.52861 77.6569 4.07288 82.5706 4.07288ZM82.5706 17.3578C85.0098 17.3578 87.0868 15.398 87.0868 12.7866C87.0868 10.1751 85.0098 8.25038 82.5706 8.25038C80.1315 8.25038 78.0546 10.1751 78.0546 12.7866C78.0546 15.398 80.1668 17.3578 82.5706 17.3578Z" fill="#0B1F2A"/>
<path d="M93.1562 4.07288H98.0699V6.71498C99.4885 4.75527 101.269 4.07288 103.315 4.07288C108.065 4.07288 109.351 7.82607 109.351 12.0692V21.1766H104.438V12.1654C104.438 9.84703 103.58 8.08416 101.305 8.08416C99.0289 8.08416 98.0745 9.87765 98.0745 12.1961V21.1723H93.1606V4.07288H93.1562Z" fill="#0B1F2A"/>
<path d="M116.49 4.1123H121.175V7.9311H116.49V16.0893C116.49 16.8067 116.787 17.559 117.745 17.559C118.705 17.559 119.032 16.776 119.032 15.993C119.032 15.5031 118.899 14.8163 118.802 14.5582H122.695C122.991 15.1794 123.093 15.9624 123.093 16.5486C123.093 19.0288 121.444 21.5441 117.454 21.5441C114.485 21.5441 111.586 20.4986 111.586 15.6344L111.555 0.324097H116.5V4.11667L116.49 4.1123Z" fill="#0B1F2A"/>
<path d="M4.91377 4.073H0V21.1768H4.91377V4.073Z" fill="#0B1F2A"/>
<path d="M19.9532 4.07288C18.3359 4.07288 15.8967 4.43157 14.6108 6.88121C13.7535 5.18395 12.0037 4.07288 9.43188 4.07288C8.27856 4.07288 7.3771 4.42282 6.55078 4.99586V8.32475C6.80707 8.20226 7.19593 8.08854 7.71736 8.08854C9.89586 8.08854 10.5543 9.88202 10.5543 12.1698V21.181H15.4327V12.2048C15.4327 9.952 16.0911 8.09291 18.2342 8.09291C20.3774 8.09291 21.0712 9.8864 21.0712 12.1741V21.1854H25.9849V12.0779C25.9849 7.83482 24.699 4.08162 19.9488 4.08162L19.9532 4.07288Z" fill="#0B1F2A"/>
<path d="M51.2732 4.07288H46.3594V21.1766H51.2732V4.07288Z" fill="#0B1F2A"/>
<path d="M66.3086 4.07288C64.6913 4.07288 62.2521 4.43157 60.9662 6.88121C60.1089 5.18395 58.3591 4.07288 55.7873 4.07288C54.634 4.07288 53.7325 4.42282 52.9062 4.99586V8.32475C53.1625 8.20226 53.5514 8.08854 54.0728 8.08854C56.2513 8.08854 56.9097 9.88202 56.9097 12.1698V21.181H61.7881V12.2048C61.7881 9.952 62.4465 8.09291 64.5897 8.09291C66.7328 8.09291 67.4266 9.8864 67.4266 12.1741V21.1854H72.3404V12.0779C72.3404 7.83482 71.0544 4.08162 66.3042 4.08162L66.3086 4.07288Z" fill="#0B1F2A"/>
<path d="M33.7335 11.8593L30.3044 4.073H25.3906L31.2235 17.4497L33.7335 11.8593Z" fill="#0B1F2A"/>
<path d="M39.6375 4.07288L28.6875 28.4555H33.6146L44.5645 4.07288H39.6375Z" fill="#0B1F2A"/>
<path d="M130.655 11.8593L127.227 4.073H122.312L128.15 17.4497L130.655 11.8593Z" fill="#0B1F2A"/>
<path d="M136.556 4.07288L125.609 28.4555H130.536L141.483 4.07288H136.556Z" fill="#0B1F2A"/>
</g>
</g>
<defs>
<clipPath id="clip0_2146_6533">
<rect width="141.479" height="28.7753" fill="white"/>
</clipPath>
</defs>
</svg>
